<svg viewBox="0 0 36 36" fill="none" xmlns="http://www.w3.org/2000/svg">
<g clip-path="url(#clip0_2_5)">
<path d="M0 32C0 34.209 1.791 36 4 36H32C34.209 36 36 34.209 36 32V4C36 1.791 34.209 0 32 0H4C1.791 0 0 1.791 0 4V32Z" fill="#3B88C3"/>
<path d="M13.758 22.242L10.929 25.071C14.834 28.976 21.166 28.975 25.072 25.07C27.319 22.824 28.266 19.774 27.926 16.845L31.963 17.212C32.178 21.052 30.835 24.964 27.901 27.899C22.434 33.366 13.568 33.367 8.102 27.899L5.274 30.727L4.425 21.393L13.758 22.242ZM8.101 8.1C13.569 2.633 22.432 2.633 27.9 8.1L30.728 5.272L31.577 14.606L22.243 13.757L25.072 10.928C21.166 7.023 14.836 7.023 10.93 10.928C8.682 13.175 7.736 16.225 8.074 19.154L4.038 18.788C3.822 14.947 5.166 11.035 8.101 8.1Z" fill="white"/>
</g>
</svg>
